grf
version=1
nRows=19
nColumns=37
inDegrees=no
endheader
time	ground_force_1_vx	ground_force_1_vy	ground_force_1_vz	ground_force_1_px	ground_force_1_py	ground_force_1_pz	ground_moment_1_mx	ground_moment_1_my	ground_moment_1_mz	ground_force_2_vx	ground_force_2_vy	ground_force_2_vz	ground_force_2_px	ground_force_2_py	ground_force_2_pz	ground_moment_2_mx	ground_moment_2_my	ground_moment_2_mz	ground_force_3_vx	ground_force_3_vy	ground_force_3_vz	ground_force_3_px	ground_force_3_py	ground_force_3_pz	ground_moment_3_mx	ground_moment_3_my	ground_moment_3_mz	ground_force_4_vx	ground_force_4_vy	ground_force_4_vz	ground_force_4_px	ground_force_4_py	ground_force_4_pz	ground_moment_4_mx	ground_moment_4_my	ground_moment_4_mz
      6.14000000	      0.00000000	     -0.00000000	      0.00000000	      0.00000000	      0.00000000	      0.00000000	      0.00000000	      0.00000000	      0.00000000	      1.27604485	     42.56726456	   -407.58947754	   -244.53102556	  -1112.69118828	      0.00000000	      0.00000000	      0.00000000	   4706.04301404	     -1.78465741	    -56.46353515	   -434.67321777	   -236.21495673	   -665.74312933	      0.00000000	      0.00000000	     -0.00000000	  -3726.00003370	      0.00000000	     -0.00000000	      0.00000000	      0.00000000	      0.00000000	      0.00000000	      0.00000000	      0.00000000	      0.00000000
      6.15000000	      0.00000000	     -0.00000000	      0.00000000	      0.00000000	      0.00000000	      0.00000000	      0.00000000	      0.00000000	      0.00000000	      0.30979651	     43.19099426	   -411.64089966	   -245.99740745	  -1113.86700203	      0.00000000	      0.00000000	      0.00000000	   4749.37666614	     -1.70080206	    -55.59088883	   -436.76861572	   -236.94058230	   -665.65028359	      0.00000000	      0.00000000	     -0.00000000	  -3761.56698604	      0.00000000	     -0.00000000	      0.00000000	      0.00000000	      0.00000000	      0.00000000	      0.00000000	      0.00000000	      0.00000000
      6.16000000	      0.00000000	     -0.00000000	      0.00000000	      0.00000000	      0.00000000	      0.00000000	      0.00000000	      0.00000000	      0.00000000	      0.04699019	     43.19083023	   -412.57083130	   -246.54606790	  -1113.25692188	      0.00000000	      0.00000000	      0.00000000	   4712.43967965	     -1.41440119	    -54.70785510	   -434.30541992	   -237.24822254	   -667.36502180	      0.00000000	      0.00000000	     -0.00000000	  -3910.43950257	      0.00000000	     -0.00000000	      0.00000000	      0.00000000	      0.00000000	      0.00000000	      0.00000000	      0.00000000	      0.00000000
      6.17000000	      0.00000000	     -0.00000000	      0.00000000	      0.00000000	      0.00000000	      0.00000000	      0.00000000	      0.00000000	      0.00000000	      0.02383989	     43.32199097	   -415.56188965	   -248.19529634	  -1113.89739954	      0.00000000	      0.00000000	      0.00000000	   4776.23336555	     -2.04999606	    -53.69478971	   -433.77343750	   -238.24724085	   -667.11709201	      0.00000000	      0.00000000	     -0.00000000	  -3745.18215375	      0.00000000	     -0.00000000	      0.00000000	      0.00000000	      0.00000000	      0.00000000	      0.00000000	      0.00000000	      0.00000000
      6.18000000	      0.00000000	     -0.00000000	      0.00000000	      0.00000000	      0.00000000	      0.00000000	      0.00000000	      0.00000000	      0.00000000	     -0.08471788	     43.26158905	   -416.16030884	   -249.05811587	  -1113.59017312	      0.00000000	      0.00000000	      0.00000000	   4650.82542150	     -2.61461695	    -52.68154121	   -430.52249146	   -238.39594041	   -667.54789120	      0.00000000	      0.00000000	     -0.00000000	  -3746.59859743	      0.00000000	     -0.00000000	      0.00000000	      0.00000000	      0.00000000	      0.00000000	      0.00000000	      0.00000000	      0.00000000
      6.19000000	      0.00000000	     -0.00000000	      0.00000000	      0.00000000	      0.00000000	      0.00000000	      0.00000000	      0.00000000	      0.00000000	      0.26763153	     43.45325470	   -414.22814941	   -249.61313885	  -1113.29498281	      0.00000000	      0.00000000	      0.00000000	   4417.79219566	     -2.71256969	    -51.49611259	   -426.49774170	   -238.69870255	   -667.81935551	      0.00000000	      0.00000000	     -0.00000000	  -3753.71261277	      0.00000000	     -0.00000000	      0.00000000	      0.00000000	      0.00000000	      0.00000000	      0.00000000	      0.00000000	      0.00000000
      6.20000000	      0.00000000	     -0.00000000	      0.00000000	      0.00000000	      0.00000000	      0.00000000	      0.00000000	      0.00000000	      0.00000000	      0.48854998	     44.51853180	   -407.40139771	   -249.48718315	  -1113.05597941	      0.00000000	      0.00000000	      0.00000000	   4294.90565340	     -3.15589179	    -50.64586230	   -425.24923706	   -239.08056549	   -668.50934430	      0.00000000	      0.00000000	     -0.00000000	  -3779.31595940	      0.00000000	     -0.00000000	      0.00000000	      0.00000000	      0.00000000	      0.00000000	      0.00000000	      0.00000000	      0.00000000
      6.21000000	      0.00000000	     -0.00000000	      0.00000000	      0.00000000	      0.00000000	      0.00000000	      0.00000000	      0.00000000	      0.00000000	     -0.35274833	     44.06885147	   -408.10754395	   -250.20855182	  -1114.25581977	      0.00000000	      0.00000000	      0.00000000	   4131.46448957	     -2.66995793	    -49.66591239	   -422.82263184	   -239.62513085	   -668.27731351	      0.00000000	      0.00000000	     -0.00000000	  -3702.28227875	      0.00000000	     -0.00000000	      0.00000000	      0.00000000	      0.00000000	      0.00000000	      0.00000000	      0.00000000	      0.00000000
      6.22000000	      0.00000000	     -0.00000000	      0.00000000	      0.00000000	      0.00000000	      0.00000000	      0.00000000	      0.00000000	      0.00000000	      0.17054433	     42.59253311	   -405.77258301	   -250.57606219	  -1113.88145835	      0.00000000	      0.00000000	      0.00000000	   4125.91882690	     -1.98975608	    -48.75357038	   -419.31469727	   -240.90220967	   -668.72581161	      0.00000000	      0.00000000	     -0.00000000	  -3878.83951535	      0.00000000	     -0.00000000	      0.00000000	      0.00000000	      0.00000000	      0.00000000	      0.00000000	      0.00000000	      0.00000000
      6.23000000	      0.00000000	     -0.00000000	      0.00000000	      0.00000000	      0.00000000	      0.00000000	      0.00000000	      0.00000000	      0.00000000	     -0.00381671	     41.74806213	   -403.03878784	   -251.12886045	  -1112.71700601	      0.00000000	      0.00000000	      0.00000000	   3998.76243841	     -0.91328928	    -48.04298011	   -417.05364990	   -242.41248855	   -669.60179148	      0.00000000	      0.00000000	     -0.00000000	  -3985.65109026	      0.00000000	     -0.00000000	      0.00000000	      0.00000000	      0.00000000	      0.00000000	      0.00000000	      0.00000000	      0.00000000
      6.24000000	      0.00000000	     -0.00000000	      0.00000000	      0.00000000	      0.00000000	      0.00000000	      0.00000000	      0.00000000	      0.00000000	      0.05386925	     41.61649704	   -402.39718628	   -251.83950311	  -1112.42962688	      0.00000000	      0.00000000	      0.00000000	   4053.35533263	     -0.22374562	    -46.89099501	   -417.75219727	   -243.46420421	   -669.61859471	      0.00000000	      0.00000000	     -0.00000000	  -4107.60379111	      0.00000000	     -0.00000000	      0.00000000	      0.00000000	      0.00000000	      0.00000000	      0.00000000	      0.00000000	      0.00000000
      6.25000000	      0.00000000	     -0.00000000	      0.00000000	      0.00000000	      0.00000000	      0.00000000	      0.00000000	      0.00000000	      0.00000000	      0.31046167	     40.72904587	   -403.16192627	   -252.12041775	  -1112.00700805	      0.00000000	      0.00000000	      0.00000000	   3914.23102039	      1.55054735	    -46.49573149	   -419.81768799	   -245.07377282	   -669.59052472	      0.00000000	      0.00000000	     -0.00000000	  -4353.10986791	      0.00000000	     -0.00000000	      0.00000000	      0.00000000	      0.00000000	      0.00000000	      0.00000000	      0.00000000	      0.00000000
      6.26000000	      0.00000000	     -0.00000000	      0.00000000	      0.00000000	      0.00000000	      0.00000000	      0.00000000	      0.00000000	      0.00000000	      0.32766449	     40.01270294	   -399.81329346	   -252.02402244	  -1110.46911499	      0.00000000	      0.00000000	      0.00000000	   4082.09311519	      2.58356905	    -46.32290672	   -419.35986328	   -246.55427977	   -671.39413565	      0.00000000	      0.00000000	     -0.00000000	  -4317.71664714	      0.00000000	     -0.00000000	      0.00000000	      0.00000000	      0.00000000	      0.00000000	      0.00000000	      0.00000000	      0.00000000
      6.27000000	      0.00000000	     -0.00000000	      0.00000000	      0.00000000	      0.00000000	      0.00000000	      0.00000000	      0.00000000	      0.00000000	      0.53195632	     39.17116165	   -401.72256470	   -253.67832299	  -1111.45948975	      0.00000000	      0.00000000	      0.00000000	   4123.65626702	      3.82515718	    -46.18872485	   -421.04904175	   -247.49991376	   -671.08063851	      0.00000000	      0.00000000	     -0.00000000	  -4527.49931795	      0.00000000	     -0.00000000	      0.00000000	      0.00000000	      0.00000000	      0.00000000	      0.00000000	      0.00000000	      0.00000000
      6.28000000	      0.00000000	     -0.00000000	      0.00000000	      0.00000000	      0.00000000	      0.00000000	      0.00000000	      0.00000000	      0.00000000	      0.90155923	     39.62633514	   -399.04342651	   -254.49375295	  -1111.05666016	      0.00000000	      0.00000000	      0.00000000	   4163.33173143	      3.63376022	    -46.33313402	   -420.90893555	   -248.68517396	   -671.43648606	      0.00000000	      0.00000000	     -0.00000000	  -4545.91706146	      0.00000000	     -0.00000000	      0.00000000	      0.00000000	      0.00000000	      0.00000000	      0.00000000	      0.00000000	      0.00000000
      6.29000000	      0.00000000	     -0.00000000	      0.00000000	      0.00000000	      0.00000000	      0.00000000	      0.00000000	      0.00000000	      0.00000000	      1.37216020	     39.34653473	   -396.77969360	   -255.15171035	  -1111.61143005	      0.00000000	      0.00000000	      0.00000000	   4168.48651692	      2.71707319	    -46.49650597	   -420.19757080	   -249.13976472	   -672.00041028	      0.00000000	      0.00000000	     -0.00000000	  -4666.69918431	      0.00000000	     -0.00000000	      0.00000000	      0.00000000	      0.00000000	      0.00000000	      0.00000000	      0.00000000	      0.00000000
      6.30000000	      0.00000000	     -0.00000000	      0.00000000	      0.00000000	      0.00000000	      0.00000000	      0.00000000	      0.00000000	      0.00000000	      1.60578918	     39.35538101	   -394.19430542	   -255.93577343	  -1111.90631982	      0.00000000	      0.00000000	      0.00000000	   4147.63778404	      2.35548490	    -47.12734243	   -420.40295410	   -249.90366295	   -672.13738478	      0.00000000	      0.00000000	     -0.00000000	  -4776.50834032	      0.00000000	     -0.00000000	      0.00000000	      0.00000000	      0.00000000	      0.00000000	      0.00000000	      0.00000000	      0.00000000
      6.31000000	      0.00000000	     -0.00000000	      0.00000000	      0.00000000	      0.00000000	      0.00000000	      0.00000000	      0.00000000	      0.00000000	      2.18428135	     39.79809952	   -391.83679199	   -255.67602129	  -1111.10771086	      0.00000000	      0.00000000	      0.00000000	   4172.22286002	      2.61845464	    -47.03871941	   -422.30474854	   -251.12431189	   -671.58130607	      0.00000000	      0.00000000	     -0.00000000	  -4949.31781123	      0.00000000	     -0.00000000	      0.00000000	      0.00000000	      0.00000000	      0.00000000	      0.00000000	      0.00000000	      0.00000000
      6.32000000	      0.00000000	     -0.00000000	      0.00000000	      0.00000000	      0.00000000	      0.00000000	      0.00000000	      0.00000000	      0.00000000	      3.34671497	     40.60021973	   -391.15200806	   -256.77112683	  -1111.51328126	      0.00000000	      0.00000000	      0.00000000	   4062.92914764	      2.97323701	    -46.71932628	   -420.37854004	   -251.40382125	   -671.90809316	      0.00000000	      0.00000000	     -0.00000000	  -5108.96712383	      0.00000000	     -0.00000000	      0.00000000	      0.00000000	      0.00000000	      0.00000000	      0.00000000	      0.00000000	      0.00000000
